<mxfile host="app.diagrams.net" modified="2024-03-08T11:40:06.877Z" agent="Mozilla/5.0 (Windows NT 10.0; Win64; x64) AppleWebKit/537.36 (KHTML, like Gecko) Chrome/122.0.0.0 Safari/537.36" etag="RHL8-4WArYlKP9Pfr4NZ" version="24.0.2" type="github">
  <diagram name="Page-1" id="2YBvvXClWsGukQMizWep">
    <mxGraphModel dx="874" dy="1313" grid="0" gridSize="10" guides="1" tooltips="1" connect="1" arrows="1" fold="1" page="1" pageScale="1" pageWidth="1100" pageHeight="850" math="0" shadow="0">
      <root>
        <mxCell id="0" />
        <mxCell id="1" parent="0" />
        <mxCell id="aM9ryv3xv72pqoxQDRHE-1" value="System" style="shape=umlLifeline;perimeter=lifelinePerimeter;whiteSpace=wrap;html=1;container=0;dropTarget=0;collapsible=0;recursiveResize=0;outlineConnect=0;portConstraint=eastwest;newEdgeStyle={&quot;edgeStyle&quot;:&quot;elbowEdgeStyle&quot;,&quot;elbow&quot;:&quot;vertical&quot;,&quot;curved&quot;:0,&quot;rounded&quot;:0};" parent="1" vertex="1">
          <mxGeometry x="348" y="-644" width="100" height="512" as="geometry" />
        </mxCell>
        <mxCell id="aM9ryv3xv72pqoxQDRHE-2" value="" style="html=1;points=[];perimeter=orthogonalPerimeter;outlineConnect=0;targetShapes=umlLifeline;portConstraint=eastwest;newEdgeStyle={&quot;edgeStyle&quot;:&quot;elbowEdgeStyle&quot;,&quot;elbow&quot;:&quot;vertical&quot;,&quot;curved&quot;:0,&quot;rounded&quot;:0};" parent="aM9ryv3xv72pqoxQDRHE-1" vertex="1">
          <mxGeometry x="45" y="126" width="10" height="386" as="geometry" />
        </mxCell>
        <mxCell id="ZF_WPmHn7iZpwXLvuH06-1" value="" style="html=1;points=[];perimeter=orthogonalPerimeter;outlineConnect=0;targetShapes=umlLifeline;portConstraint=eastwest;newEdgeStyle={&quot;edgeStyle&quot;:&quot;elbowEdgeStyle&quot;,&quot;elbow&quot;:&quot;vertical&quot;,&quot;curved&quot;:0,&quot;rounded&quot;:0};" parent="aM9ryv3xv72pqoxQDRHE-1" vertex="1">
          <mxGeometry x="45" y="81" width="10" height="33" as="geometry" />
        </mxCell>
        <mxCell id="aM9ryv3xv72pqoxQDRHE-5" value="Buyer Account" style="shape=umlLifeline;perimeter=lifelinePerimeter;whiteSpace=wrap;html=1;container=0;dropTarget=0;collapsible=0;recursiveResize=0;outlineConnect=0;portConstraint=eastwest;newEdgeStyle={&quot;edgeStyle&quot;:&quot;elbowEdgeStyle&quot;,&quot;elbow&quot;:&quot;vertical&quot;,&quot;curved&quot;:0,&quot;rounded&quot;:0};" parent="1" vertex="1">
          <mxGeometry x="519" y="-644" width="100" height="507" as="geometry" />
        </mxCell>
        <mxCell id="aM9ryv3xv72pqoxQDRHE-6" value="" style="html=1;points=[];perimeter=orthogonalPerimeter;outlineConnect=0;targetShapes=umlLifeline;portConstraint=eastwest;newEdgeStyle={&quot;edgeStyle&quot;:&quot;elbowEdgeStyle&quot;,&quot;elbow&quot;:&quot;vertical&quot;,&quot;curved&quot;:0,&quot;rounded&quot;:0};" parent="aM9ryv3xv72pqoxQDRHE-5" vertex="1">
          <mxGeometry x="45" y="477" width="10" height="36" as="geometry" />
        </mxCell>
        <mxCell id="cXpNgX4IUtrz1no8qVba-5" value="Payment&lt;br&gt;Gateway" style="shape=umlLifeline;perimeter=lifelinePerimeter;whiteSpace=wrap;html=1;container=0;dropTarget=0;collapsible=0;recursiveResize=0;outlineConnect=0;portConstraint=eastwest;newEdgeStyle={&quot;edgeStyle&quot;:&quot;elbowEdgeStyle&quot;,&quot;elbow&quot;:&quot;vertical&quot;,&quot;curved&quot;:0,&quot;rounded&quot;:0};" parent="1" vertex="1">
          <mxGeometry x="684" y="-644" width="100" height="517" as="geometry" />
        </mxCell>
        <mxCell id="cXpNgX4IUtrz1no8qVba-21" value="" style="html=1;points=[];perimeter=orthogonalPerimeter;outlineConnect=0;targetShapes=umlLifeline;portConstraint=eastwest;newEdgeStyle={&quot;edgeStyle&quot;:&quot;elbowEdgeStyle&quot;,&quot;elbow&quot;:&quot;vertical&quot;,&quot;curved&quot;:0,&quot;rounded&quot;:0};" parent="cXpNgX4IUtrz1no8qVba-5" vertex="1">
          <mxGeometry x="45" y="273" width="10" height="91" as="geometry" />
        </mxCell>
        <mxCell id="cXpNgX4IUtrz1no8qVba-7" value="Purchase product" style="html=1;verticalAlign=bottom;endArrow=block;edgeStyle=elbowEdgeStyle;elbow=vertical;curved=0;rounded=0;" parent="1" edge="1">
          <mxGeometry relative="1" as="geometry">
            <mxPoint x="245" y="-545" as="sourcePoint" />
            <Array as="points" />
            <mxPoint x="393" y="-545" as="targetPoint" />
          </mxGeometry>
        </mxCell>
        <mxCell id="cXpNgX4IUtrz1no8qVba-9" value="Request shipping info" style="html=1;verticalAlign=bottom;endArrow=block;edgeStyle=elbowEdgeStyle;elbow=vertical;curved=0;rounded=0;" parent="1" edge="1">
          <mxGeometry width="80" relative="1" as="geometry">
            <mxPoint x="392" y="-506" as="sourcePoint" />
            <mxPoint x="245" y="-506" as="targetPoint" />
          </mxGeometry>
        </mxCell>
        <mxCell id="cXpNgX4IUtrz1no8qVba-10" value="Shipping info entry" style="html=1;verticalAlign=bottom;endArrow=open;dashed=1;endSize=8;edgeStyle=elbowEdgeStyle;elbow=vertical;curved=0;rounded=0;" parent="1" target="aM9ryv3xv72pqoxQDRHE-2" edge="1">
          <mxGeometry relative="1" as="geometry">
            <mxPoint x="244" y="-474" as="sourcePoint" />
            <mxPoint x="385" y="-476" as="targetPoint" />
          </mxGeometry>
        </mxCell>
        <mxCell id="cXpNgX4IUtrz1no8qVba-14" value="Request payment info" style="html=1;verticalAlign=bottom;endArrow=block;edgeStyle=elbowEdgeStyle;elbow=vertical;curved=0;rounded=0;" parent="1" edge="1">
          <mxGeometry width="80" relative="1" as="geometry">
            <mxPoint x="392" y="-430" as="sourcePoint" />
            <mxPoint x="245" y="-430" as="targetPoint" />
          </mxGeometry>
        </mxCell>
        <mxCell id="cXpNgX4IUtrz1no8qVba-15" value="Payment info entry" style="html=1;verticalAlign=bottom;endArrow=open;dashed=1;endSize=8;edgeStyle=elbowEdgeStyle;elbow=vertical;curved=0;rounded=0;" parent="1" edge="1">
          <mxGeometry relative="1" as="geometry">
            <mxPoint x="244" y="-392" as="sourcePoint" />
            <mxPoint x="394" y="-392" as="targetPoint" />
          </mxGeometry>
        </mxCell>
        <mxCell id="cXpNgX4IUtrz1no8qVba-19" value="" style="endArrow=none;dashed=1;html=1;rounded=0;exitX=-0.001;exitY=0.547;exitDx=0;exitDy=0;exitPerimeter=0;entryX=0.999;entryY=0.547;entryDx=0;entryDy=0;entryPerimeter=0;" parent="1" edge="1">
          <mxGeometry width="50" height="50" relative="1" as="geometry">
            <mxPoint x="214.41699999999992" y="-270.5999999999999" as="sourcePoint" />
            <mxPoint x="797.4169999999999" y="-270.5999999999999" as="targetPoint" />
            <Array as="points" />
          </mxGeometry>
        </mxCell>
        <mxCell id="cXpNgX4IUtrz1no8qVba-20" value="[ PAY ONLINE ]" style="text;html=1;strokeColor=none;fillColor=none;align=center;verticalAlign=middle;whiteSpace=wrap;rounded=0;" parent="1" vertex="1">
          <mxGeometry x="424" y="-384" width="95" height="30" as="geometry" />
        </mxCell>
        <mxCell id="cXpNgX4IUtrz1no8qVba-22" value="Send payment info" style="html=1;verticalAlign=bottom;endArrow=open;edgeStyle=elbowEdgeStyle;elbow=vertical;curved=0;rounded=0;endFill=0;" parent="1" edge="1">
          <mxGeometry relative="1" as="geometry">
            <mxPoint x="403" y="-344" as="sourcePoint" />
            <mxPoint x="729" y="-344" as="targetPoint" />
          </mxGeometry>
        </mxCell>
        <mxCell id="cXpNgX4IUtrz1no8qVba-25" value="Process payment" style="html=1;verticalAlign=bottom;endArrow=block;edgeStyle=elbowEdgeStyle;elbow=vertical;curved=0;rounded=0;" parent="1" edge="1">
          <mxGeometry relative="1" as="geometry">
            <mxPoint x="403" y="-322" as="sourcePoint" />
            <mxPoint x="729" y="-322" as="targetPoint" />
          </mxGeometry>
        </mxCell>
        <mxCell id="cXpNgX4IUtrz1no8qVba-23" value="Payment processed" style="html=1;verticalAlign=bottom;endArrow=open;dashed=1;endSize=8;edgeStyle=elbowEdgeStyle;elbow=vertical;curved=0;rounded=0;" parent="1" edge="1">
          <mxGeometry relative="1" as="geometry">
            <mxPoint x="404" y="-286" as="targetPoint" />
            <mxPoint x="727" y="-286" as="sourcePoint" />
          </mxGeometry>
        </mxCell>
        <mxCell id="cXpNgX4IUtrz1no8qVba-26" value="Payment confirmation" style="html=1;verticalAlign=bottom;endArrow=open;edgeStyle=elbowEdgeStyle;elbow=vertical;curved=0;rounded=0;endFill=0;" parent="1" edge="1">
          <mxGeometry width="80" relative="1" as="geometry">
            <mxPoint x="393" y="-287" as="sourcePoint" />
            <mxPoint x="246" y="-287" as="targetPoint" />
          </mxGeometry>
        </mxCell>
        <mxCell id="cXpNgX4IUtrz1no8qVba-27" value="[ PAY COD ]" style="text;html=1;strokeColor=none;fillColor=none;align=center;verticalAlign=middle;whiteSpace=wrap;rounded=0;" parent="1" vertex="1">
          <mxGeometry x="439" y="-273" width="76.5" height="30" as="geometry" />
        </mxCell>
        <mxCell id="cXpNgX4IUtrz1no8qVba-28" value="Order confirmation" style="html=1;verticalAlign=bottom;endArrow=open;edgeStyle=elbowEdgeStyle;elbow=vertical;curved=0;rounded=0;endFill=0;" parent="1" edge="1">
          <mxGeometry width="80" relative="1" as="geometry">
            <mxPoint x="394" y="-227" as="sourcePoint" />
            <mxPoint x="247" y="-227" as="targetPoint" />
          </mxGeometry>
        </mxCell>
        <mxCell id="cXpNgX4IUtrz1no8qVba-29" value="Save order info" style="html=1;verticalAlign=bottom;endArrow=open;edgeStyle=elbowEdgeStyle;elbow=vertical;curved=0;rounded=0;endFill=0;" parent="1" edge="1">
          <mxGeometry relative="1" as="geometry">
            <mxPoint x="403" y="-150" as="sourcePoint" />
            <Array as="points">
              <mxPoint x="511" y="-150" />
              <mxPoint x="379" y="-204" />
            </Array>
            <mxPoint x="563" y="-150" as="targetPoint" />
          </mxGeometry>
        </mxCell>
        <mxCell id="cXpNgX4IUtrz1no8qVba-30" value="Buyer" style="text;html=1;strokeColor=none;fillColor=none;align=center;verticalAlign=middle;whiteSpace=wrap;rounded=0;" parent="1" vertex="1">
          <mxGeometry x="212" y="-678" width="60" height="30" as="geometry" />
        </mxCell>
        <mxCell id="cXpNgX4IUtrz1no8qVba-31" value="&lt;font style=&quot;font-size: 18px;&quot;&gt;&lt;b&gt;SEQUENCE DIAGRAM FOR THE USE CASE PURCHASE PRODUCT&lt;/b&gt;&lt;/font&gt;" style="text;html=1;strokeColor=none;fillColor=none;align=center;verticalAlign=middle;whiteSpace=wrap;rounded=0;" parent="1" vertex="1">
          <mxGeometry x="359" y="-810" width="310" height="64" as="geometry" />
        </mxCell>
        <mxCell id="cXpNgX4IUtrz1no8qVba-32" value="" style="shape=umlLifeline;perimeter=lifelinePerimeter;whiteSpace=wrap;html=1;container=1;dropTarget=0;collapsible=0;recursiveResize=0;outlineConnect=0;portConstraint=eastwest;newEdgeStyle={&quot;edgeStyle&quot;:&quot;elbowEdgeStyle&quot;,&quot;elbow&quot;:&quot;vertical&quot;,&quot;curved&quot;:0,&quot;rounded&quot;:0};participant=umlActor;" parent="1" vertex="1">
          <mxGeometry x="232" y="-646" width="20" height="516" as="geometry" />
        </mxCell>
        <mxCell id="cXpNgX4IUtrz1no8qVba-33" value="" style="html=1;points=[];perimeter=orthogonalPerimeter;outlineConnect=0;targetShapes=umlLifeline;portConstraint=eastwest;newEdgeStyle={&quot;edgeStyle&quot;:&quot;elbowEdgeStyle&quot;,&quot;elbow&quot;:&quot;vertical&quot;,&quot;curved&quot;:0,&quot;rounded&quot;:0};" parent="cXpNgX4IUtrz1no8qVba-32" vertex="1">
          <mxGeometry x="5" y="53" width="10" height="379" as="geometry" />
        </mxCell>
        <mxCell id="cXpNgX4IUtrz1no8qVba-39" value="alt" style="shape=umlFrame;whiteSpace=wrap;html=1;pointerEvents=0;" parent="1" vertex="1">
          <mxGeometry x="215" y="-380" width="583" height="200" as="geometry" />
        </mxCell>
      </root>
    </mxGraphModel>
  </diagram>
</mxfile>
